<svg width="370" height="112" viewBox="0 0 370 112" fill="none" xmlns="http://www.w3.org/2000/svg">
<path d="M92.0879 19.0013C91.4021 19.001 90.729 19.1535 90.1407 19.4425C89.5525 19.7315 89.0712 20.1462 88.7483 20.6422L58.484 67.1455C58.1765 67.618 58.0236 68.1477 58.0403 68.683C58.0568 69.2184 58.2423 69.741 58.5786 70.2002C58.9149 70.6593 59.3906 71.0392 59.9592 71.3029C60.5279 71.5666 61.1702 71.7051 61.8236 71.7049H80.1107L73.2172 108.434C73.093 109.104 73.2404 109.79 73.6371 110.385C74.0336 110.981 74.6574 111.453 75.413 111.73C76.1684 112.007 77.0139 112.073 77.8197 111.918C78.6254 111.764 79.3472 111.397 79.8743 110.874L132.838 58.1708C133.292 57.7172 133.581 57.167 133.669 56.5845C133.757 56.0018 133.641 55.4108 133.335 54.8798C133.03 54.349 132.546 53.9001 131.942 53.5855C131.337 53.2709 130.636 53.1034 129.919 53.1026H106.024L125.671 23.5836C125.985 23.1118 126.143 22.5811 126.131 22.0437C126.119 21.5065 125.937 20.981 125.602 20.5188C125.268 20.0566 124.792 19.6735 124.223 19.4073C123.653 19.1411 123.009 19.0007 122.353 19L92.0879 19.0013ZM94.3563 25.2016H115.983L96.3362 54.7204C96.0227 55.1924 95.8641 55.723 95.8761 56.2603C95.888 56.7977 96.0703 57.3232 96.4048 57.7854C96.7394 58.2476 97.2148 58.6307 97.7842 58.8969C98.3539 59.1631 98.9981 59.3034 99.6538 59.3042H121.909L82.7865 98.2341L88.2613 69.0785C88.3444 68.6366 88.3098 68.1854 88.16 67.7554C88.0103 67.3256 87.7489 66.9274 87.3938 66.5881C87.0387 66.2487 86.5982 65.9764 86.1027 65.7896C85.6071 65.6028 85.0681 65.5061 84.5226 65.506H68.1347L94.3563 25.2016Z" fill="#FFA665"/>
<path d="M23.2202 53.396H57.2602V59.192H23.2202V53.396ZM23.9562 83.112H62.6882V89H17.1482V24.6H61.3082V30.488H23.9562V83.112ZM163.438 89V30.488H140.806V24.6H192.878V30.488H170.246V89H163.438ZM229.946 89V78.328L229.67 76.58V58.732C229.67 54.6227 228.505 51.464 226.174 49.256C223.905 47.048 220.501 45.944 215.962 45.944C212.834 45.944 209.86 46.4653 207.038 47.508C204.217 48.5507 201.825 49.9307 199.862 51.648L196.918 46.772C199.372 44.6867 202.316 43.092 205.75 41.988C209.185 40.8227 212.804 40.24 216.606 40.24C222.862 40.24 227.677 41.804 231.05 44.932C234.485 47.9987 236.202 52.6907 236.202 59.008V89H229.946ZM213.294 89.46C209.676 89.46 206.517 88.8773 203.818 87.712C201.181 86.4853 199.157 84.8293 197.746 82.744C196.336 80.5973 195.63 78.144 195.63 75.384C195.63 72.8693 196.213 70.6 197.378 68.576C198.605 66.4907 200.568 64.8347 203.266 63.608C206.026 62.32 209.706 61.676 214.306 61.676H230.958V66.552H214.49C209.829 66.552 206.578 67.38 204.738 69.036C202.96 70.692 202.07 72.7467 202.07 75.2C202.07 77.96 203.144 80.168 205.29 81.824C207.437 83.48 210.442 84.308 214.306 84.308C217.986 84.308 221.145 83.48 223.782 81.824C226.481 80.1067 228.444 77.6533 229.67 74.464L231.142 78.972C229.916 82.1613 227.769 84.7067 224.702 86.608C221.697 88.5093 217.894 89.46 213.294 89.46ZM274.552 107.308C270.136 107.308 265.904 106.664 261.856 105.376C257.808 104.088 254.527 102.248 252.012 99.856L255.324 94.888C257.593 96.912 260.384 98.5067 263.696 99.672C267.069 100.899 270.627 101.512 274.368 101.512C280.501 101.512 285.009 100.071 287.892 97.188C290.775 94.3667 292.216 89.9507 292.216 83.94V71.888L293.136 63.608L292.492 55.328V40.7H298.748V83.112C298.748 91.4533 296.693 97.556 292.584 101.42C288.536 105.345 282.525 107.308 274.552 107.308ZM273.356 87.16C268.756 87.16 264.616 86.1787 260.936 84.216C257.256 82.192 254.343 79.4013 252.196 75.844C250.111 72.2867 249.068 68.208 249.068 63.608C249.068 59.008 250.111 54.96 252.196 51.464C254.343 47.9067 257.256 45.1467 260.936 43.184C264.616 41.2213 268.756 40.24 273.356 40.24C277.649 40.24 281.513 41.1293 284.948 42.908C288.383 44.6867 291.112 47.324 293.136 50.82C295.16 54.316 296.172 58.5787 296.172 63.608C296.172 68.6373 295.16 72.9 293.136 76.396C291.112 79.892 288.383 82.56 284.948 84.4C281.513 86.24 277.649 87.16 273.356 87.16ZM274 81.364C277.557 81.364 280.716 80.628 283.476 79.156C286.236 77.6227 288.413 75.5373 290.008 72.9C291.603 70.2013 292.4 67.104 292.4 63.608C292.4 60.112 291.603 57.0453 290.008 54.408C288.413 51.7707 286.236 49.716 283.476 48.244C280.716 46.7107 277.557 45.944 274 45.944C270.504 45.944 267.345 46.7107 264.524 48.244C261.764 49.716 259.587 51.7707 257.992 54.408C256.459 57.0453 255.692 60.112 255.692 63.608C255.692 67.104 256.459 70.2013 257.992 72.9C259.587 75.5373 261.764 77.6227 264.524 79.156C267.345 80.628 270.504 81.364 274 81.364ZM337.44 89.46C332.411 89.46 327.995 88.4173 324.192 86.332C320.39 84.1853 317.415 81.272 315.268 77.592C313.122 73.8507 312.048 69.588 312.048 64.804C312.048 60.02 313.06 55.788 315.084 52.108C317.17 48.428 319.991 45.5453 323.548 43.46C327.167 41.3133 331.215 40.24 335.692 40.24C340.231 40.24 344.248 41.2827 347.744 43.368C351.302 45.392 354.092 48.2747 356.116 52.016C358.14 55.696 359.152 59.9587 359.152 64.804C359.152 65.1107 359.122 65.448 359.06 65.816C359.06 66.1227 359.06 66.46 359.06 66.828H317.016V61.952H355.564L352.988 63.884C352.988 60.388 352.222 57.2907 350.688 54.592C349.216 51.832 347.192 49.6853 344.616 48.152C342.04 46.6187 339.066 45.852 335.692 45.852C332.38 45.852 329.406 46.6187 326.768 48.152C324.131 49.6853 322.076 51.832 320.604 54.592C319.132 57.352 318.396 60.5107 318.396 64.068V65.08C318.396 68.76 319.194 72.0107 320.788 74.832C322.444 77.592 324.714 79.7693 327.596 81.364C330.54 82.8973 333.883 83.664 337.624 83.664C340.568 83.664 343.298 83.1427 345.812 82.1C348.388 81.0573 350.596 79.4627 352.436 77.316L356.116 81.548C353.97 84.124 351.271 86.0867 348.02 87.436C344.831 88.7853 341.304 89.46 337.44 89.46Z" fill="black"/>
</svg>
