<svg width="127" height="55" viewBox="0 0 127 55" fill="none" xmlns="http://www.w3.org/2000/svg">
<path d="M0 5.77652H13.7647V9.83806H5.04706V17.3519H11.9753V21.4134H5.04706V30.1457H13.7647V34.2073H0V5.77652ZM53.6348 5.33228V34.2073H47.4961V5.33228H53.6348ZM63.761 5.33228V9.63579H37.4818V5.33228H63.761ZM87.733 26.3143C87.3145 26.8431 86.7771 27.5042 86.1195 28.2974C85.4624 29.0643 84.7757 29.8443 84.0589 30.6376C83.3717 31.4044 82.6844 32.1183 81.9977 32.7794C81.3401 33.414 80.788 33.8635 80.3398 34.128C80.0411 34.2866 79.6975 34.4188 79.309 34.5246C78.9206 34.6304 78.5173 34.6965 78.0993 34.7229C77.7108 34.7494 77.3376 34.7229 76.9792 34.6436C76.6208 34.5907 76.3068 34.4849 76.0381 34.3263C75.7695 34.1412 75.5451 33.8768 75.3662 33.533C75.2168 33.2421 75.0675 32.8587 74.9181 32.3828C74.7983 31.9068 74.7539 31.3119 74.7835 30.5979C74.0667 31.6556 73.275 32.4753 72.4088 33.0571C71.5427 33.6124 70.7209 34.0222 69.9444 34.2866C69.0482 34.5775 68.152 34.7494 67.2562 34.8023C66.8377 34.8023 66.3896 34.67 65.9119 34.4056C65.4337 34.1676 65.0304 33.7842 64.7021 33.2554C64.3733 32.7001 64.1643 31.9993 64.0746 31.1532C63.9853 30.2806 64.1046 29.2494 64.433 28.0595C64.8515 26.4465 65.5086 24.9789 66.4049 23.6568C67.3307 22.3347 68.3314 21.2109 69.4066 20.2854C70.4823 19.3335 71.5427 18.6196 72.5883 18.1436C73.6334 17.6676 74.5 17.4561 75.1867 17.509C75.9933 17.6412 76.6504 17.8527 77.1582 18.1436C77.5767 18.408 77.8454 18.8047 77.9647 19.3335C78.114 19.8359 77.8755 20.5102 77.2479 21.3563C77.6659 21.277 78.0095 21.2241 78.2787 21.1977C78.5775 21.1712 78.8013 21.158 78.9506 21.158C79.1301 21.158 79.2494 21.1712 79.309 21.1977C79.3391 21.2506 79.3539 21.3695 79.3539 21.5546C79.3539 21.7133 79.309 22.0174 79.2193 22.4669C79.1301 22.9164 78.9955 23.5246 78.816 24.2914C78.6371 25.0583 78.398 26.0498 78.0993 27.2662C78.0396 27.5042 77.98 27.7289 77.9203 27.9405C77.8902 28.1255 77.8454 28.3239 77.7857 28.5354C77.7557 28.7205 77.7108 28.9453 77.6511 29.2097C77.5915 29.4741 77.5166 29.8047 77.4273 30.2013C77.3973 30.4393 77.3825 30.7037 77.3825 30.9946C77.412 31.259 77.4722 31.5102 77.5614 31.7482C77.6511 31.9861 77.7857 32.1845 77.9647 32.3431C78.1742 32.4753 78.4576 32.5414 78.816 32.5414C79.1148 32.5414 79.5033 32.3828 79.9809 32.0655C80.4591 31.7217 80.9669 31.2986 81.5048 30.7962C82.0421 30.2674 82.5947 29.6989 83.1626 29.0907C83.7601 28.4561 84.3128 27.8479 84.8205 27.2662C85.3283 26.6845 85.7764 26.1688 86.1644 25.7193C86.5829 25.2698 86.8817 24.9393 87.0606 24.7277C87.2997 24.4897 87.5388 24.3575 87.7774 24.3311C88.0165 24.2782 88.1959 24.3311 88.3152 24.4897C88.435 24.6484 88.4498 24.8864 88.3601 25.2037C88.3004 25.521 88.0914 25.8912 87.733 26.3143ZM74.6046 28.0595C74.7539 27.5306 74.9329 26.9092 75.1419 26.1953C75.3509 25.4813 75.5304 24.7938 75.6797 24.1328C75.8291 23.4717 75.9336 22.9297 75.9933 22.5066C76.083 22.0571 76.0682 21.8455 75.9484 21.8719C75.799 21.8984 75.6349 21.9381 75.4559 21.9909C75.3065 22.0438 75.1123 22.0835 74.8732 22.11C74.6341 22.1364 74.395 22.1761 74.1564 22.2289C74.395 21.8058 74.5296 21.4621 74.5597 21.1977C74.6193 20.9068 74.6341 20.682 74.6046 20.5234C74.5745 20.3383 74.5148 20.1929 74.4251 20.0871C74.0968 19.8491 73.5141 20.0475 72.6775 20.682C71.871 21.2902 70.9304 22.4272 69.8547 24.0931C69.4066 24.7806 69.0482 25.521 68.7795 26.3143C68.5104 27.0811 68.3166 27.8082 68.1968 28.4958C68.1071 29.1833 68.0923 29.7914 68.152 30.3203C68.2121 30.8227 68.3314 31.1532 68.5104 31.3119C68.8392 31.6027 69.2124 31.7482 69.6309 31.7482C70.0489 31.7217 70.467 31.6159 70.8855 31.4309C71.3336 31.2193 71.7665 30.9549 72.185 30.6376C72.6326 30.3203 73.0211 29.9897 73.3499 29.646C73.7083 29.3023 73.9918 28.9849 74.2013 28.6941C74.4399 28.4032 74.5745 28.1917 74.6046 28.0595ZM96.5598 39.8792C96.4104 40.5138 96.2162 41.3069 95.9771 42.2591C95.768 43.2108 95.5142 44.2158 95.2154 45.2732C94.9467 46.331 94.6179 47.3757 94.23 48.4069C93.8716 49.4647 93.4683 50.4033 93.0202 51.2229C92.5721 52.069 92.0791 52.7568 91.5413 53.2852C91.0039 53.8141 90.4064 54.0786 89.7493 54.0786C88.7633 54.0786 87.912 53.8141 87.1952 53.2852C86.508 52.783 85.9258 52.1354 85.4476 51.342C84.9699 50.5753 84.6263 49.7422 84.4173 48.8433C84.1782 47.9439 84.0589 47.1112 84.0589 46.3445C84.0589 45.2867 84.1634 44.4008 84.3724 43.6869C84.5814 42.9992 84.9398 42.3385 85.4476 41.7035C85.9854 41.069 86.7022 40.3948 87.5984 39.6808C88.4947 38.9669 89.6448 38.0811 91.0483 37.0234C91.7355 36.4946 92.3926 35.9922 93.0202 35.5162C93.6473 35.0402 94.2448 34.6039 94.8122 34.2073C94.9615 33.6784 95.0961 33.1893 95.2154 32.7398C95.3648 32.2638 95.4846 31.8407 95.5738 31.4705C94.7974 32.396 93.8563 33.1761 92.751 33.8107C91.6758 34.4453 90.436 34.7626 89.032 34.7626C87.7478 34.7626 86.7022 34.2602 85.8957 33.2554C85.1193 32.2241 84.7308 30.7169 84.7308 28.7337C84.7308 27.7554 84.9398 26.6316 85.3578 25.3623C85.7764 24.0931 86.3739 22.9032 87.1503 21.7926C87.9268 20.682 88.8826 19.7433 90.018 18.9765C91.1533 18.2097 92.4227 17.8263 93.8267 17.8263C94.4838 17.8263 95.0513 17.9717 95.5295 18.2626C96.0071 18.5534 96.4104 18.9236 96.7392 19.3731C97.0675 19.7962 97.3214 20.259 97.5009 20.7614C97.6798 21.2373 97.8144 21.6869 97.9041 22.11C97.9638 21.9513 98.0086 21.7926 98.0382 21.634C98.0683 21.4489 98.1131 21.2902 98.1728 21.158C98.4715 20.259 98.8004 19.6508 99.1588 19.3335C99.5467 18.9897 100.115 18.8178 100.861 18.8178C101.28 18.8178 101.623 18.884 101.892 19.0162C102.191 19.1484 102.34 19.2674 102.34 19.3731C102.191 19.664 102.071 19.8888 101.982 20.0475C101.892 20.2061 101.802 20.378 101.712 20.563C101.623 20.7217 101.533 20.9332 101.444 21.1977C101.354 21.4621 101.235 21.8455 101.085 22.3479C101.026 22.533 100.906 22.9693 100.727 23.6568C100.578 24.3178 100.369 25.1112 100.099 26.0366C99.8607 26.9621 99.5916 27.9801 99.2928 29.0907C99.0242 30.2013 98.7555 31.2854 98.4863 32.3431C99.3229 31.9201 100.189 31.4044 101.085 30.7962C101.982 30.1881 102.833 29.5667 103.639 28.9321C104.446 28.2974 105.163 27.7025 105.79 27.1472C106.417 26.5655 106.88 26.0895 107.179 25.7193C107.418 25.402 107.687 25.1772 107.985 25.045C108.284 24.9128 108.538 24.8731 108.747 24.926C108.986 24.9525 109.121 25.0715 109.15 25.283C109.21 25.4681 109.121 25.7325 108.882 26.0763C108.195 27.0546 107.358 28.0066 106.372 28.9321C105.387 29.8311 104.371 30.6772 103.325 31.4705C102.31 32.2374 101.309 32.9248 100.324 33.533C99.3678 34.1147 98.546 34.5907 97.8593 34.9609C97.5605 36.1508 97.3066 37.1159 97.0976 37.8563C96.8886 38.5967 96.7091 39.271 96.5598 39.8792ZM90.9142 32.0655C91.5413 32.0655 92.124 31.9201 92.6618 31.6292C93.2292 31.3383 93.737 31.0078 94.1851 30.6376C94.6332 30.2409 95.0064 29.8443 95.3051 29.4477C95.6039 29.051 95.8277 28.7337 95.9771 28.4958C96.0969 28.2578 96.2309 27.9405 96.3803 27.5438C96.5598 27.1472 96.6944 26.7638 96.7836 26.3936C96.8733 26.0234 96.9034 25.6929 96.8733 25.402C96.8733 25.1112 96.7688 24.9525 96.5598 24.926C96.3803 24.8996 96.2309 24.7938 96.1116 24.6087C96.0219 24.4236 95.9475 24.2121 95.8878 23.9741C95.8277 23.7361 95.7833 23.4981 95.7533 23.2602C95.7533 23.0222 95.7385 22.8107 95.7084 22.6255C95.559 21.7001 95.3051 21.0258 94.9468 20.6027C94.5884 20.1796 94.1851 19.9681 93.737 19.9681C92.9901 19.9681 92.2733 20.2325 91.5861 20.7614C90.929 21.2902 90.3315 21.9777 89.7942 22.8239C89.2859 23.6436 88.8826 24.5559 88.5839 25.5607C88.2857 26.539 88.1363 27.4777 88.1363 28.3768C88.1363 29.4873 88.3152 30.3864 88.6736 31.0739C89.032 31.7349 89.7789 32.0655 90.9142 32.0655ZM88.8531 50.4692C89.4506 50.4692 89.9282 50.0726 90.2866 49.2792C90.6751 48.5125 91.0784 47.4547 91.4964 46.1062C91.5861 45.789 91.7059 45.3264 91.8548 44.7181C92.0342 44.1364 92.2285 43.4622 92.4375 42.6955C92.6766 41.9283 92.9157 41.0957 93.1543 40.1965C93.3934 39.3239 93.6473 38.4381 93.9159 37.539C93.6773 37.7241 93.4235 37.9092 93.1543 38.0943C92.9157 38.3058 92.6618 38.5438 92.3926 38.8082C91.7355 39.3635 91.0931 39.8924 90.4661 40.3948C89.8686 40.9236 89.3307 41.4657 88.8531 42.0208C88.3749 42.6029 87.9869 43.2239 87.6882 43.885C87.419 44.5462 87.2849 45.3129 87.2849 46.1857C87.2849 47.0584 87.3145 47.7724 87.3741 48.3274C87.4639 48.883 87.5684 49.3189 87.6882 49.6362C87.8375 49.9539 88.0017 50.1651 88.1806 50.2711C88.3902 50.4033 88.614 50.4692 88.8531 50.4692ZM126.132 25.9573C125.236 27.1208 124.221 28.2578 123.085 29.3684C121.951 30.4525 120.741 31.4309 119.456 32.3035C118.201 33.1496 116.902 33.8371 115.558 34.366C114.244 34.8948 112.959 35.1592 111.705 35.1592C111.047 35.1592 110.331 35.0138 109.554 34.7229C108.807 34.4585 108.12 34.0354 107.493 33.4537C106.865 32.8719 106.358 32.1183 105.969 31.1929C105.611 30.2674 105.506 29.1436 105.656 27.8215C105.775 26.7374 106.149 25.6003 106.776 24.4104C107.433 23.1941 108.225 22.0835 109.15 21.0787C110.106 20.0739 111.167 19.2409 112.332 18.5799C113.527 17.9188 114.722 17.5883 115.917 17.5883C117.051 17.5883 117.873 17.8395 118.381 18.3419C118.889 18.8443 119.112 19.4657 119.053 20.2061C118.963 21.0258 118.694 21.7794 118.246 22.4669C117.828 23.1544 117.321 23.7758 116.723 24.3311C116.126 24.8864 115.483 25.3888 114.796 25.8383C114.139 26.2878 113.512 26.6977 112.914 27.0679C112.257 27.4645 111.63 27.8479 111.033 28.2181C110.435 28.5618 109.912 28.8792 109.464 29.17C109.494 29.8311 109.629 30.3864 109.868 30.8359C110.106 31.2854 110.405 31.6556 110.763 31.9465C111.122 32.2109 111.525 32.4092 111.973 32.5414C112.451 32.6472 112.929 32.7001 113.407 32.7001C114.423 32.7001 115.483 32.4224 116.588 31.8672C117.694 31.2854 118.769 30.5979 119.814 29.8047C120.89 28.9849 121.876 28.1388 122.772 27.2662C123.698 26.3936 124.46 25.64 125.057 25.0054C125.266 24.7938 125.475 24.6749 125.684 24.6484C125.923 24.5955 126.102 24.622 126.222 24.7277C126.372 24.807 126.446 24.9657 126.446 25.2037C126.446 25.4152 126.341 25.6664 126.132 25.9573ZM114.662 19.8491C114.303 19.8491 113.87 20.0078 113.362 20.3251C112.884 20.6424 112.407 21.1051 111.928 21.7133C111.451 22.295 111.003 23.0222 110.584 23.8948C110.166 24.7409 109.852 25.7193 109.643 26.8299C110.002 26.5919 110.39 26.3539 110.808 26.1159C111.227 25.8515 111.645 25.5739 112.063 25.283C113.348 24.4104 114.244 23.6436 114.752 22.9825C115.259 22.3215 115.543 21.753 115.603 21.277C115.663 20.7746 115.603 20.4176 115.424 20.2061C115.244 19.9681 114.99 19.8491 114.662 19.8491Z" fill="black"/>
<path d="M26.8921 0.333793C26.6194 0.333658 26.3518 0.398778 26.1179 0.522204C25.8841 0.645629 25.6927 0.822712 25.5644 1.0345L13.5326 20.8923C13.4103 21.0941 13.3496 21.3203 13.3562 21.5489C13.3628 21.7775 13.4365 22.0007 13.5702 22.1967C13.7039 22.3928 13.893 22.555 14.1191 22.6676C14.3452 22.7802 14.6005 22.8394 14.8603 22.8393H22.1304L19.3899 38.5233C19.3405 38.8096 19.3991 39.1023 19.5568 39.3566C19.7144 39.6108 19.9624 39.8124 20.2628 39.9307C20.5631 40.049 20.8993 40.0773 21.2196 40.0112C21.5399 39.9453 21.8269 39.7886 22.0364 39.5653L43.0925 17.06C43.2732 16.8662 43.3877 16.6313 43.4227 16.3826C43.4577 16.1338 43.4118 15.8814 43.2903 15.6546C43.1687 15.428 42.9766 15.2363 42.7362 15.102C42.4958 14.9676 42.217 14.8961 41.9322 14.8957H32.4326L40.2432 2.29055C40.3679 2.08905 40.4309 1.86247 40.4261 1.63299C40.4213 1.40356 40.3489 1.17918 40.2159 0.98179C40.0829 0.784444 39.8939 0.620854 39.6675 0.507176C39.4411 0.393498 39.185 0.333568 38.9243 0.333252L26.8921 0.333793ZM27.7938 2.98147H36.3916L28.581 15.5866C28.4563 15.7881 28.3933 16.0147 28.3981 16.2441C28.4028 16.4736 28.4753 16.698 28.6083 16.8954C28.7413 17.0927 28.9303 17.2563 29.1567 17.37C29.3831 17.4837 29.6392 17.5436 29.8999 17.5439H38.7475L23.1942 34.1678L25.3708 21.7177C25.4038 21.5291 25.39 21.3364 25.3305 21.1528C25.271 20.9693 25.167 20.7992 25.0259 20.6543C24.8847 20.5094 24.7096 20.3931 24.5126 20.3133C24.3156 20.2336 24.1013 20.1923 23.8844 20.1922H17.3693L27.7938 2.98147Z" fill="#FFA665"/>
</svg>
