<svg width="690" height="626" viewBox="0 0 690 626" fill="none" xmlns="http://www.w3.org/2000/svg">
<rect width="690" height="626" fill="black"/>
<path fill-rule="evenodd" clip-rule="evenodd" d="M399.825 46.4259C400.826 46.4189 401.824 46.5342 402.79 46.7682L427.41 52.7767V52.7802C433.294 54.216 436.782 59.704 435.208 65.0418L427.264 91.9473C460.227 103.923 489.892 123.991 512.286 151.135L538.862 137.214V137.211C544.137 134.448 550.883 136.086 553.936 140.868L566.69 160.85C568.157 163.149 568.557 165.884 567.798 168.455C567.044 171.023 565.192 173.213 562.654 174.54L536.074 188.464C550.76 219.611 555.061 252.965 550.032 284.85L579.696 292.061C582.526 292.749 584.94 294.429 586.404 296.731C587.867 299.037 588.263 301.772 587.501 304.34L580.878 326.676V326.673C579.296 332.011 573.243 335.175 567.359 333.747L537.707 326.54C524.511 356.449 502.399 383.393 472.515 403.683L487.82 427.797C490.858 432.583 489.052 438.697 483.785 441.463L461.76 453.033C459.222 454.364 456.207 454.727 453.377 454.043C450.547 453.355 448.133 451.678 446.666 449.376L431.318 425.265C399.964 437.4 367.27 441.188 334.977 438.312V438.309C332.039 438.078 329.324 436.789 327.441 434.728C325.555 432.671 324.658 430.012 324.946 427.35C325.235 424.685 326.687 422.24 328.974 420.552C331.265 418.865 334.203 418.079 337.137 418.373C369.057 421.216 400.6 416.902 431 403.373H430.996C436.213 401.053 442.517 402.793 445.42 407.355L460.263 430.673L463.19 429.136L448.374 405.793C445.474 401.227 446.972 395.408 451.793 392.476C484.899 372.344 508.302 343.476 520.411 311.274C522.287 306.282 528.105 303.467 533.719 304.832L562.424 311.809L563.309 308.815L534.627 301.846C529.017 300.483 525.532 295.411 526.649 290.241C533.872 256.855 529.521 221.254 511.952 188.757C509.391 184.027 511.312 178.308 516.341 175.671L542.043 162.204L540.352 159.559L514.627 173.036H514.631C509.598 175.67 503.18 174.318 499.942 169.945C477.686 139.85 445.924 118.621 410.434 107.638V107.635C404.936 105.933 401.832 100.655 403.334 95.5653L411.023 69.5228L407.727 68.7194L400.046 94.7413V94.7378C398.544 99.8275 392.953 102.989 387.254 101.976C350.455 95.4226 311.219 99.3734 275.415 115.359C270.197 117.686 263.887 115.946 260.979 111.38L246.128 88.0446L243.225 89.5642L258.03 112.889H258.027C260.922 117.455 259.432 123.271 254.611 126.206C226.507 143.316 206.654 165.935 193.378 192.488C192.196 194.947 189.978 196.872 187.217 197.836C184.46 198.796 181.387 198.716 178.696 197.605C176.005 196.498 173.914 194.458 172.893 191.943C171.873 189.424 172.012 186.64 173.271 184.215C186.689 157.373 206.627 133.566 233.888 115L218.579 90.8851C215.537 86.0958 217.351 79.9722 222.634 77.2088L244.658 65.6913C249.937 62.9316 256.683 64.5735 259.733 69.3628L275.077 93.4701C309.411 80.1085 346.179 76.2023 381.317 80.7614L389.26 53.8523L389.264 53.8488C390.546 49.5031 394.87 46.464 399.83 46.4255L399.825 46.4259Z" fill="white"/>
<path fill-rule="evenodd" clip-rule="evenodd" d="M350.638 138.337C356.221 138.299 361.87 138.575 367.557 139.193H367.565C440.392 147.046 492.632 207.243 483.968 273.318H483.972H483.968C475.258 339.432 408.9 386.776 336.071 378.924C333.141 378.638 330.457 377.3 328.621 375.204C326.784 373.111 325.945 370.439 326.295 367.784C326.641 365.125 328.147 362.705 330.473 361.063C332.798 359.417 335.755 358.687 338.678 359.033C399.657 365.608 454.736 326.315 462.04 270.942C469.287 215.623 425.916 165.649 364.943 159.076V159.073H364.936C303.964 152.453 248.878 191.798 241.583 247.121C241.279 249.79 239.804 252.239 237.494 253.916C235.184 255.596 232.227 256.358 229.289 256.04C226.351 255.722 223.675 254.346 221.865 252.222C220.056 250.098 219.259 247.404 219.659 244.743C227.691 183.834 284.708 138.796 350.631 138.323L350.638 138.337Z" fill="white"/>
<path fill-rule="evenodd" clip-rule="evenodd" d="M203.136 277.345C209.235 277.345 214.175 281.83 214.179 287.36V292.415C224.883 294.325 234.833 298.154 243.569 303.474L247.5 299.911H247.496C251.805 295.998 258.798 295.998 263.11 299.911L269.845 306.021C274.153 309.93 274.153 316.274 269.845 320.186L265.913 323.753C271.777 331.679 275.997 340.706 278.104 350.413H283.675V350.41C289.77 350.41 294.714 354.895 294.714 360.425V369.039C294.714 374.573 289.77 379.055 283.675 379.055H278.104C275.997 388.749 271.781 397.785 265.913 405.715L269.845 409.282V409.285C274.153 413.194 274.153 419.538 269.845 423.447L263.11 429.557C258.798 433.469 251.805 433.469 247.496 429.557L243.55 425.976C234.821 431.272 224.875 435.09 214.174 437.001V442.056H214.178C214.174 447.586 209.234 452.071 203.135 452.071H193.64H193.644C187.545 452.071 182.605 447.585 182.601 442.056V436.997C171.92 435.087 161.966 431.275 153.23 425.976L149.283 429.557H149.287C144.974 433.469 137.986 433.469 133.673 429.557L126.939 423.447C122.626 419.538 122.626 413.194 126.939 409.285L130.885 405.705C125.044 397.778 120.843 388.748 118.737 379.058H113.162V379.054C107.063 379.054 102.123 374.572 102.119 369.039V360.424C102.123 354.895 107.063 350.409 113.162 350.409H118.734C120.84 340.702 125.048 331.682 130.886 323.762L126.939 320.182V320.185C122.626 316.273 122.626 309.929 126.939 306.02L133.673 299.91C137.986 295.997 144.974 295.997 149.287 299.91L153.218 303.473C161.963 298.149 171.92 294.327 182.604 292.417V287.359H182.601C182.604 281.829 187.544 277.344 193.644 277.344H203.139L203.136 277.345ZM198.388 310.217C197.129 310.765 195.77 311.09 194.376 311.177C181.061 311.981 168.96 316.784 159.522 324.288C158.463 325.126 157.239 325.776 155.911 326.199C155.448 327.39 154.744 328.494 153.831 329.451C145.587 338.03 140.3 348.954 139.415 361.09H139.411C139.319 362.354 138.957 363.591 138.353 364.737C138.957 365.879 139.315 367.112 139.411 368.377C140.297 380.457 145.595 391.45 153.827 400.019H153.831C154.744 400.976 155.452 402.08 155.911 403.275C157.227 403.691 158.444 404.333 159.499 405.161C168.94 412.63 181.062 417.44 194.377 418.24C195.771 418.328 197.134 418.656 198.393 419.204C199.652 418.656 201.015 418.328 202.409 418.24C215.785 417.437 227.825 412.641 237.282 405.161C238.337 404.33 239.554 403.691 240.871 403.271C241.337 402.07 242.049 400.959 242.973 399.998C251.248 391.44 256.543 380.46 257.428 368.377H257.424C257.52 367.113 257.882 365.876 258.483 364.734C257.878 363.591 257.52 362.355 257.424 361.09C256.538 348.955 251.255 338.044 242.973 329.473C242.045 328.512 241.333 327.398 240.867 326.196C239.542 325.773 238.318 325.127 237.259 324.289C227.81 316.771 215.785 311.981 202.409 311.178C201.015 311.091 199.652 310.766 198.389 310.218L198.388 310.217Z" fill="white"/>
<path fill-rule="evenodd" clip-rule="evenodd" d="M198.385 326.772C221.361 326.772 240.227 343.889 240.227 364.734C240.227 385.578 221.337 402.643 198.385 402.643C175.432 402.643 156.599 385.558 156.599 364.734C156.599 343.91 175.409 326.772 198.385 326.772ZM198.385 346.802C187.357 346.802 178.678 354.704 178.678 364.73C178.678 374.756 187.334 382.608 198.385 382.608C209.436 382.608 218.145 374.735 218.145 364.73C218.145 354.725 209.413 346.802 198.385 346.802Z" fill="white"/>
</svg>
